<?xml version="1.0" encoding="utf-8" ?>
<svg baseProfile="full" height="57.5mm" version="1.1" viewBox="0,0,306.20000000000005,57.5" width="306.20000000000005mm" xmlns="http://www.w3.org/2000/svg" xmlns:ev="http://www.w3.org/2001/xml-events" xmlns:xlink="http://www.w3.org/1999/xlink"><defs /><rect fill="#FFFFFF" height="57.5" width="306.20000000000005" x="0" y="0" /><text fill="#000000" style="font-size:6px; font-family:Arial; font-weight:bold;" x="10" y="10">锦鲤</text><text fill="#000000" style="font-size:3px; font-family:Arial;" x="10" y="14.4">2025: 111481 金币</text><text fill="#000000" style="font-size:2.5px; font-family:Arial" x="10" y="18.3">Jan</text><rect fill="#EBEDF0" height="4" rx="1" ry="1" width="4" x="10" y="19.7"><title>2024-12-30</title></rect><rect fill="#EBEDF0" height="4" rx="1" ry="1" width="4" x="10" y="25.1"><title>2024-12-31</title></rect><rect fill="#9ade9d" height="4" rx="1" ry="1" width="4" x="10" y="30.5"><title>2025-01-01 300.0 金币</title></rect><rect fill="#9bdf9e" height="4" rx="1" ry="1" width="4" x="10" y="35.9"><title>2025-01-02 282.0 金币</title></rect><rect fill="#62b966" height="4" rx="1" ry="1" width="4" x="10" y="41.300000000000004"><title>2025-01-03 506.0 金币</title></rect><rect fill="#9de09f" height="4" rx="1" ry="1" width="4" x="10" y="46.699999999999996"><title>2025-01-04 261.0 金币</title></rect><rect fill="#63bb68" height="4" rx="1" ry="1" width="4" x="10" y="52.1"><title>2025-01-05 418.0 金币</title></rect><rect fill="#a2e2a4" height="4" rx="1" ry="1" width="4" x="15.4" y="19.7"><title>2025-01-06 172.0 金币</title></rect><rect fill="#EBEDF0" height="4" rx="1" ry="1" width="4" x="15.4" y="25.1"><title>2025-01-07</title></rect><rect fill="#a0e1a2" height="4" rx="1" ry="1" width="4" x="15.4" y="30.5"><title>2025-01-08 206.0 金币</title></rect><rect fill="#62ba66" height="4" rx="1" ry="1" width="4" x="15.4" y="35.9"><title>2025-01-09 488.0 金币</title></rect><rect fill="#a2e2a4" height="4" rx="1" ry="1" width="4" x="15.4" y="41.300000000000004"><title>2025-01-10 169.0 金币</title></rect><rect fill="#9de09f" height="4" rx="1" ry="1" width="4" x="15.4" y="46.699999999999996"><title>2025-01-11 254.0 金币</title></rect><rect fill="#a6e4a8" height="4" rx="1" ry="1" width="4" x="15.4" y="52.1"><title>2025-01-12 94.0 金币</title></rect><rect fill="#9fe1a1" height="4" rx="1" ry="1" width="4" x="20.8" y="19.7"><title>2025-01-13 225.0 金币</title></rect><rect fill="#62ba67" height="4" rx="1" ry="1" width="4" x="20.8" y="25.1"><title>2025-01-14 468.0 金币</title></rect><rect fill="#96dc98" height="4" rx="1" ry="1" width="4" x="20.8" y="30.5"><title>2025-01-15 379.0 金币</title></rect><rect fill="#62ba67" height="4" rx="1" ry="1" width="4" x="20.8" y="35.9"><title>2025-01-16 484.0 金币</title></rect><rect fill="#549F57" height="4" rx="1" ry="1" width="4" x="20.8" y="41.300000000000004"><title>2025-01-17 711.0 金币</title></rect><rect fill="#62b966" height="4" rx="1" ry="1" width="4" x="20.8" y="46.699999999999996"><title>2025-01-18 512.0 金币</title></rect><rect fill="#62b966" height="4" rx="1" ry="1" width="4" x="20.8" y="52.1"><title>2025-01-19 504.0 金币</title></rect><rect fill="#9de09f" height="4" rx="1" ry="1" width="4" x="26.200000000000003" y="19.7"><title>2025-01-20 262.0 金币</title></rect><rect fill="#97dd9a" height="4" rx="1" ry="1" width="4" x="26.200000000000003" y="25.1"><title>2025-01-21 353.0 金币</title></rect><rect fill="#61b966" height="4" rx="1" ry="1" width="4" x="26.200000000000003" y="30.5"><title>2025-01-22 516.0 金币</title></rect><rect fill="#a5e4a7" height="4" rx="1" ry="1" width="4" x="26.200000000000003" y="35.9"><title>2025-01-23 117.0 金币</title></rect><rect fill="#549F57" height="4" rx="1" ry="1" width="4" x="26.200000000000003" y="41.300000000000004"><title>2025-01-24 990.0 金币</title></rect><rect fill="#62ba67" height="4" rx="1" ry="1" width="4" x="26.200000000000003" y="46.699999999999996"><title>2025-01-25 478.0 金币</title></rect><rect fill="#62ba67" height="4" rx="1" ry="1" width="4" x="26.200000000000003" y="52.1"><title>2025-01-26 481.0 金币</title></rect><rect fill="#63bb68" height="4" rx="1" ry="1" width="4" x="31.6" y="19.7"><title>2025-01-27 393.0 金币</title></rect><rect fill="#9ade9d" height="4" rx="1" ry="1" width="4" x="31.6" y="25.1"><title>2025-01-28 302.0 金币</title></rect><rect fill="#62b966" height="4" rx="1" ry="1" width="4" x="31.6" y="30.5"><title>2025-01-29 501.0 金币</title></rect><rect fill="#61b865" height="4" rx="1" ry="1" width="4" x="31.6" y="35.9"><title>2025-01-30 570.0 金币</title></rect><rect fill="#9bdf9d" height="4" rx="1" ry="1" width="4" x="31.6" y="41.300000000000004"><title>2025-01-31 288.0 金币</title></rect><rect fill="#62ba67" height="4" rx="1" ry="1" width="4" x="31.6" y="46.699999999999996"><title>2025-02-01 466.0 金币</title></rect><rect fill="#99de9b" height="4" rx="1" ry="1" width="4" x="31.6" y="52.1"><title>2025-02-02 330.0 金币</title></rect><text fill="#000000" style="font-size:2.5px; font-family:Arial" x="37.0" y="18.3">Feb</text><rect fill="#97dd9a" height="4" rx="1" ry="1" width="4" x="37.0" y="19.7"><title>2025-02-03 353.0 金币</title></rect><rect fill="#63bb68" height="4" rx="1" ry="1" width="4" x="37.0" y="25.1"><title>2025-02-04 385.0 金币</title></rect><rect fill="#60b865" height="4" rx="1" ry="1" width="4" x="37.0" y="30.5"><title>2025-02-05 594.0 金币</title></rect><rect fill="#61b966" height="4" rx="1" ry="1" width="4" x="37.0" y="35.9"><title>2025-02-06 539.0 金币</title></rect><rect fill="#9ade9c" height="4" rx="1" ry="1" width="4" x="37.0" y="41.300000000000004"><title>2025-02-07 309.0 金币</title></rect><rect fill="#96dc99" height="4" rx="1" ry="1" width="4" x="37.0" y="46.699999999999996"><title>2025-02-08 374.0 金币</title></rect><rect fill="#98dd9b" height="4" rx="1" ry="1" width="4" x="37.0" y="52.1"><title>2025-02-09 337.0 金币</title></rect><rect fill="#96dc99" height="4" rx="1" ry="1" width="4" x="42.4" y="19.7"><title>2025-02-10 375.0 金币</title></rect><rect fill="#99de9b" height="4" rx="1" ry="1" width="4" x="42.4" y="25.1"><title>2025-02-11 330.0 金币</title></rect><rect fill="#60b764" height="4" rx="1" ry="1" width="4" x="42.4" y="30.5"><title>2025-02-12 626.0 金币</title></rect><rect fill="#96dc99" height="4" rx="1" ry="1" width="4" x="42.4" y="35.9"><title>2025-02-13 372.0 金币</title></rect><rect fill="#63bb68" height="4" rx="1" ry="1" width="4" x="42.4" y="41.300000000000004"><title>2025-02-14 416.0 金币</title></rect><rect fill="#61b966" height="4" rx="1" ry="1" width="4" x="42.4" y="46.699999999999996"><title>2025-02-15 524.0 金币</title></rect><rect fill="#63bb67" height="4" rx="1" ry="1" width="4" x="42.4" y="52.1"><title>2025-02-16 423.0 金币</title></rect><rect fill="#61b966" height="4" rx="1" ry="1" width="4" x="47.8" y="19.7"><title>2025-02-17 518.0 金币</title></rect><rect fill="#97dd9a" height="4" rx="1" ry="1" width="4" x="47.8" y="25.1"><title>2025-02-18 357.0 金币</title></rect><rect fill="#61b865" height="4" rx="1" ry="1" width="4" x="47.8" y="30.5"><title>2025-02-19 581.0 金币</title></rect><rect fill="#61b966" height="4" rx="1" ry="1" width="4" x="47.8" y="35.9"><title>2025-02-20 523.0 金币</title></rect><rect fill="#98dd9a" height="4" rx="1" ry="1" width="4" x="47.8" y="41.300000000000004"><title>2025-02-21 350.0 金币</title></rect><rect fill="#9bdf9d" height="4" rx="1" ry="1" width="4" x="47.8" y="46.699999999999996"><title>2025-02-22 297.0 金币</title></rect><rect fill="#a0e1a2" height="4" rx="1" ry="1" width="4" x="47.8" y="52.1"><title>2025-02-23 208.0 金币</title></rect><rect fill="#96dc99" height="4" rx="1" ry="1" width="4" x="53.199999999999996" y="19.7"><title>2025-02-24 371.0 金币</title></rect><rect fill="#a0e1a2" height="4" rx="1" ry="1" width="4" x="53.199999999999996" y="25.1"><title>2025-02-25 207.0 金币</title></rect><rect fill="#9fe1a2" height="4" rx="1" ry="1" width="4" x="53.199999999999996" y="30.5"><title>2025-02-26 213.0 金币</title></rect><rect fill="#a0e1a2" height="4" rx="1" ry="1" width="4" x="53.199999999999996" y="35.9"><title>2025-02-27 204.0 金币</title></rect><rect fill="#9de09f" height="4" rx="1" ry="1" width="4" x="53.199999999999996" y="41.300000000000004"><title>2025-02-28 256.0 金币</title></rect><rect fill="#9ade9c" height="4" rx="1" ry="1" width="4" x="53.199999999999996" y="46.699999999999996"><title>2025-03-01 313.0 金币</title></rect><rect fill="#9bdf9d" height="4" rx="1" ry="1" width="4" x="53.199999999999996" y="52.1"><title>2025-03-02 297.0 金币</title></rect><text fill="#000000" style="font-size:2.5px; font-family:Arial" x="58.599999999999994" y="18.3">Mar</text><rect fill="#a1e2a3" height="4" rx="1" ry="1" width="4" x="58.599999999999994" y="19.7"><title>2025-03-03 181.0 金币</title></rect><rect fill="#a1e2a3" height="4" rx="1" ry="1" width="4" x="58.599999999999994" y="25.1"><title>2025-03-04 182.0 金币</title></rect><rect fill="#a4e3a6" height="4" rx="1" ry="1" width="4" x="58.599999999999994" y="30.5"><title>2025-03-05 140.0 金币</title></rect><rect fill="#a4e3a6" height="4" rx="1" ry="1" width="4" x="58.599999999999994" y="35.9"><title>2025-03-06 132.0 金币</title></rect><rect fill="#a1e2a3" height="4" rx="1" ry="1" width="4" x="58.599999999999994" y="41.300000000000004"><title>2025-03-07 181.0 金币</title></rect><rect fill="#a4e3a6" height="4" rx="1" ry="1" width="4" x="58.599999999999994" y="46.699999999999996"><title>2025-03-08 131.0 金币</title></rect><rect fill="#9ee0a0" height="4" rx="1" ry="1" width="4" x="58.599999999999994" y="52.1"><title>2025-03-09 243.0 金币</title></rect><rect fill="#9fe1a1" height="4" rx="1" ry="1" width="4" x="63.99999999999999" y="19.7"><title>2025-03-10 220.0 金币</title></rect><rect fill="#a3e3a5" height="4" rx="1" ry="1" width="4" x="63.99999999999999" y="25.1"><title>2025-03-11 154.0 金币</title></rect><rect fill="#9adf9d" height="4" rx="1" ry="1" width="4" x="63.99999999999999" y="30.5"><title>2025-03-12 299.0 金币</title></rect><rect fill="#63bb68" height="4" rx="1" ry="1" width="4" x="63.99999999999999" y="35.9"><title>2025-03-13 402.0 金币</title></rect><rect fill="#98dd9a" height="4" rx="1" ry="1" width="4" x="63.99999999999999" y="41.300000000000004"><title>2025-03-14 349.0 金币</title></rect><rect fill="#96dc98" height="4" rx="1" ry="1" width="4" x="63.99999999999999" y="46.699999999999996"><title>2025-03-15 378.0 金币</title></rect><rect fill="#97dd9a" height="4" rx="1" ry="1" width="4" x="63.99999999999999" y="52.1"><title>2025-03-16 352.0 金币</title></rect><rect fill="#a1e2a3" height="4" rx="1" ry="1" width="4" x="69.39999999999999" y="19.7"><title>2025-03-17 185.0 金币</title></rect><rect fill="#a4e3a6" height="4" rx="1" ry="1" width="4" x="69.39999999999999" y="25.1"><title>2025-03-18 132.0 金币</title></rect><rect fill="#a4e3a6" height="4" rx="1" ry="1" width="4" x="69.39999999999999" y="30.5"><title>2025-03-19 139.0 金币</title></rect><rect fill="#9ee0a0" height="4" rx="1" ry="1" width="4" x="69.39999999999999" y="35.9"><title>2025-03-20 245.0 金币</title></rect><rect fill="#a2e3a5" height="4" rx="1" ry="1" width="4" x="69.39999999999999" y="41.300000000000004"><title>2025-03-21 162.0 金币</title></rect><rect fill="#a8e5aa" height="4" rx="1" ry="1" width="4" x="69.39999999999999" y="46.699999999999996"><title>2025-03-22 61.0 金币</title></rect><rect fill="#a0e1a2" height="4" rx="1" ry="1" width="4" x="69.39999999999999" y="52.1"><title>2025-03-23 205.0 金币</title></rect><rect fill="#a6e4a8" height="4" rx="1" ry="1" width="4" x="74.8" y="19.7"><title>2025-03-24 106.0 金币</title></rect><rect fill="#9ade9c" height="4" rx="1" ry="1" width="4" x="74.8" y="25.1"><title>2025-03-25 307.0 金币</title></rect><rect fill="#9ee1a1" height="4" rx="1" ry="1" width="4" x="74.8" y="30.5"><title>2025-03-26 229.0 金币</title></rect><rect fill="#549F57" height="4" rx="1" ry="1" width="4" x="74.8" y="35.9"><title>2025-03-27 830.0 金币</title></rect><rect fill="#a8e5aa" height="4" rx="1" ry="1" width="4" x="74.8" y="41.300000000000004"><title>2025-03-28 61.0 金币</title></rect><rect fill="#9fe1a1" height="4" rx="1" ry="1" width="4" x="74.8" y="46.699999999999996"><title>2025-03-29 223.0 金币</title></rect><rect fill="#a7e5a9" height="4" rx="1" ry="1" width="4" x="74.8" y="52.1"><title>2025-03-30 84.0 金币</title></rect><rect fill="#aae6ac" height="4" rx="1" ry="1" width="4" x="80.2" y="19.7"><title>2025-03-31 26.0 金币</title></rect><rect fill="#a8e5aa" height="4" rx="1" ry="1" width="4" x="80.2" y="25.1"><title>2025-04-01 61.0 金币</title></rect><rect fill="#a6e4a8" height="4" rx="1" ry="1" width="4" x="80.2" y="30.5"><title>2025-04-02 98.0 金币</title></rect><rect fill="#ace7ae" height="4" rx="1" ry="1" width="4" x="80.2" y="35.9"><title>2025-04-03 2.0 金币</title></rect><rect fill="#abe7ad" height="4" rx="1" ry="1" width="4" x="80.2" y="41.300000000000004"><title>2025-04-04 13.0 金币</title></rect><rect fill="#aae6ac" height="4" rx="1" ry="1" width="4" x="80.2" y="46.699999999999996"><title>2025-04-05 29.0 金币</title></rect><rect fill="#ace7ae" height="4" rx="1" ry="1" width="4" x="80.2" y="52.1"><title>2025-04-06 1.0 金币</title></rect><text fill="#000000" style="font-size:2.5px; font-family:Arial" x="85.60000000000001" y="18.3">Apr</text><rect fill="#abe7ad" height="4" rx="1" ry="1" width="4" x="85.60000000000001" y="19.7"><title>2025-04-07 10.0 金币</title></rect><rect fill="#ace7ae" height="4" rx="1" ry="1" width="4" x="85.60000000000001" y="25.1"><title>2025-04-08 1.0 金币</title></rect><rect fill="#EBEDF0" height="4" rx="1" ry="1" width="4" x="85.60000000000001" y="30.5"><title>2025-04-09</title></rect><rect fill="#EBEDF0" height="4" rx="1" ry="1" width="4" x="85.60000000000001" y="35.9"><title>2025-04-10</title></rect><rect fill="#63ba67" height="4" rx="1" ry="1" width="4" x="85.60000000000001" y="41.300000000000004"><title>2025-04-11 438.0 金币</title></rect><rect fill="#abe7ad" height="4" rx="1" ry="1" width="4" x="85.60000000000001" y="46.699999999999996"><title>2025-04-12 18.0 金币</title></rect><rect fill="#ace7ae" height="4" rx="1" ry="1" width="4" x="85.60000000000001" y="52.1"><title>2025-04-13 2.0 金币</title></rect><rect fill="#abe7ad" height="4" rx="1" ry="1" width="4" x="91.00000000000001" y="19.7"><title>2025-04-14 10.0 金币</title></rect><rect fill="#ace7ae" height="4" rx="1" ry="1" width="4" x="91.00000000000001" y="25.1"><title>2025-04-15 5.0 金币</title></rect><rect fill="#ace7ae" height="4" rx="1" ry="1" width="4" x="91.00000000000001" y="30.5"><title>2025-04-16 6.0 金币</title></rect><rect fill="#a7e5a9" height="4" rx="1" ry="1" width="4" x="91.00000000000001" y="35.9"><title>2025-04-17 85.0 金币</title></rect><rect fill="#ace7ae" height="4" rx="1" ry="1" width="4" x="91.00000000000001" y="41.300000000000004"><title>2025-04-18 8.0 金币</title></rect><rect fill="#ace7ae" height="4" rx="1" ry="1" width="4" x="91.00000000000001" y="46.699999999999996"><title>2025-04-19 6.0 金币</title></rect><rect fill="#a4e3a7" height="4" rx="1" ry="1" width="4" x="91.00000000000001" y="52.1"><title>2025-04-20 128.0 金币</title></rect><rect fill="#9ee0a0" height="4" rx="1" ry="1" width="4" x="96.40000000000002" y="19.7"><title>2025-04-21 244.0 金币</title></rect><rect fill="#abe7ad" height="4" rx="1" ry="1" width="4" x="96.40000000000002" y="25.1"><title>2025-04-22 11.0 金币</title></rect><rect fill="#ace7ae" height="4" rx="1" ry="1" width="4" x="96.40000000000002" y="30.5"><title>2025-04-23 5.0 金币</title></rect><rect fill="#a4e4a7" height="4" rx="1" ry="1" width="4" x="96.40000000000002" y="35.9"><title>2025-04-24 126.0 金币</title></rect><rect fill="#ace7ae" height="4" rx="1" ry="1" width="4" x="96.40000000000002" y="41.300000000000004"><title>2025-04-25 4.0 金币</title></rect><rect fill="#abe7ad" height="4" rx="1" ry="1" width="4" x="96.40000000000002" y="46.699999999999996"><title>2025-04-26 10.0 金币</title></rect><rect fill="#549F57" height="4" rx="1" ry="1" width="4" x="96.40000000000002" y="52.1"><title>2025-04-27 1834.0 金币</title></rect><rect fill="#EBEDF0" height="4" rx="1" ry="1" width="4" x="101.80000000000003" y="19.7"><title>2025-04-28</title></rect><rect fill="#63ba67" height="4" rx="1" ry="1" width="4" x="101.80000000000003" y="25.1"><title>2025-04-29 427.0 金币</title></rect><rect fill="#ace7ae" height="4" rx="1" ry="1" width="4" x="101.80000000000003" y="30.5"><title>2025-04-30 3.0 金币</title></rect><rect fill="#abe6ad" height="4" rx="1" ry="1" width="4" x="101.80000000000003" y="35.9"><title>2025-05-01 20.0 金币</title></rect><rect fill="#61b966" height="4" rx="1" ry="1" width="4" x="101.80000000000003" y="41.300000000000004"><title>2025-05-02 537.0 金币</title></rect><rect fill="#549F57" height="4" rx="1" ry="1" width="4" x="101.80000000000003" y="46.699999999999996"><title>2025-05-03 712.0 金币</title></rect><rect fill="#abe7ad" height="4" rx="1" ry="1" width="4" x="101.80000000000003" y="52.1"><title>2025-05-04 18.0 金币</title></rect><text fill="#000000" style="font-size:2.5px; font-family:Arial" x="107.20000000000003" y="18.3">May</text><rect fill="#a3e3a6" height="4" rx="1" ry="1" width="4" x="107.20000000000003" y="19.7"><title>2025-05-05 144.0 金币</title></rect><rect fill="#9bdf9d" height="4" rx="1" ry="1" width="4" x="107.20000000000003" y="25.1"><title>2025-05-06 290.0 金币</title></rect><rect fill="#ace7ae" height="4" rx="1" ry="1" width="4" x="107.20000000000003" y="30.5"><title>2025-05-07 6.0 金币</title></rect><rect fill="#ace7ae" height="4" rx="1" ry="1" width="4" x="107.20000000000003" y="35.9"><title>2025-05-08 4.0 金币</title></rect><rect fill="#a4e3a6" height="4" rx="1" ry="1" width="4" x="107.20000000000003" y="41.300000000000004"><title>2025-05-09 142.0 金币</title></rect><rect fill="#9bdf9e" height="4" rx="1" ry="1" width="4" x="107.20000000000003" y="46.699999999999996"><title>2025-05-10 280.0 金币</title></rect><rect fill="#63bb68" height="4" rx="1" ry="1" width="4" x="107.20000000000003" y="52.1"><title>2025-05-11 414.0 金币</title></rect><rect fill="#549F57" height="4" rx="1" ry="1" width="4" x="112.60000000000004" y="19.7"><title>2025-05-12 1320.0 金币</title></rect><rect fill="#549F57" height="4" rx="1" ry="1" width="4" x="112.60000000000004" y="25.1"><title>2025-05-13 800.0 金币</title></rect><rect fill="#a8e5aa" height="4" rx="1" ry="1" width="4" x="112.60000000000004" y="30.5"><title>2025-05-14 74.0 金币</title></rect><rect fill="#ace7ae" height="4" rx="1" ry="1" width="4" x="112.60000000000004" y="35.9"><title>2025-05-15 6.0 金币</title></rect><rect fill="#a7e5a9" height="4" rx="1" ry="1" width="4" x="112.60000000000004" y="41.300000000000004"><title>2025-05-16 86.0 金币</title></rect><rect fill="#97dd99" height="4" rx="1" ry="1" width="4" x="112.60000000000004" y="46.699999999999996"><title>2025-05-17 358.0 金币</title></rect><rect fill="#549F57" height="4" rx="1" ry="1" width="4" x="112.60000000000004" y="52.1"><title>2025-05-18 750.0 金币</title></rect><rect fill="#549F57" height="4" rx="1" ry="1" width="4" x="118.00000000000004" y="19.7"><title>2025-05-19 796.0 金币</title></rect><rect fill="#62b966" height="4" rx="1" ry="1" width="4" x="118.00000000000004" y="25.1"><title>2025-05-20 494.0 金币</title></rect><rect fill="#a9e6ab" height="4" rx="1" ry="1" width="4" x="118.00000000000004" y="30.5"><title>2025-05-21 46.0 金币</title></rect><rect fill="#a9e6ab" height="4" rx="1" ry="1" width="4" x="118.00000000000004" y="35.9"><title>2025-05-22 54.0 金币</title></rect><rect fill="#a9e6ab" height="4" rx="1" ry="1" width="4" x="118.00000000000004" y="41.300000000000004"><title>2025-05-23 48.0 金币</title></rect><rect fill="#aae6ac" height="4" rx="1" ry="1" width="4" x="118.00000000000004" y="46.699999999999996"><title>2025-05-24 32.0 金币</title></rect><rect fill="#a5e4a7" height="4" rx="1" ry="1" width="4" x="118.00000000000004" y="52.1"><title>2025-05-25 116.0 金币</title></rect><rect fill="#a8e5aa" height="4" rx="1" ry="1" width="4" x="123.40000000000005" y="19.7"><title>2025-05-26 62.0 金币</title></rect><rect fill="#a2e3a5" height="4" rx="1" ry="1" width="4" x="123.40000000000005" y="25.1"><title>2025-05-27 162.0 金币</title></rect><rect fill="#549F57" height="4" rx="1" ry="1" width="4" x="123.40000000000005" y="30.5"><title>2025-05-28 824.0 金币</title></rect><rect fill="#61b966" height="4" rx="1" ry="1" width="4" x="123.40000000000005" y="35.9"><title>2025-05-29 550.0 金币</title></rect><rect fill="#549F57" height="4" rx="1" ry="1" width="4" x="123.40000000000005" y="41.300000000000004"><title>2025-05-30 792.0 金币</title></rect><rect fill="#9de0a0" height="4" rx="1" ry="1" width="4" x="123.40000000000005" y="46.699999999999996"><title>2025-05-31 246.0 金币</title></rect><rect fill="#62b966" height="4" rx="1" ry="1" width="4" x="123.40000000000005" y="52.1"><title>2025-06-01 508.0 金币</title></rect><text fill="#000000" style="font-size:2.5px; font-family:Arial" x="128.80000000000004" y="18.3">Jun</text><rect fill="#63ba67" height="4" rx="1" ry="1" width="4" x="128.80000000000004" y="19.7"><title>2025-06-02 426.0 金币</title></rect><rect fill="#9de09f" height="4" rx="1" ry="1" width="4" x="128.80000000000004" y="25.1"><title>2025-06-03 252.0 金币</title></rect><rect fill="#60b764" height="4" rx="1" ry="1" width="4" x="128.80000000000004" y="30.5"><title>2025-06-04 634.0 金币</title></rect><rect fill="#99de9b" height="4" rx="1" ry="1" width="4" x="128.80000000000004" y="35.9"><title>2025-06-05 324.0 金币</title></rect><rect fill="#9fe1a2" height="4" rx="1" ry="1" width="4" x="128.80000000000004" y="41.300000000000004"><title>2025-06-06 214.0 金币</title></rect><rect fill="#62ba67" height="4" rx="1" ry="1" width="4" x="128.80000000000004" y="46.699999999999996"><title>2025-06-07 458.0 金币</title></rect><rect fill="#61b865" height="4" rx="1" ry="1" width="4" x="128.80000000000004" y="52.1"><title>2025-06-08 562.0 金币</title></rect><rect fill="#549F57" height="4" rx="1" ry="1" width="4" x="134.20000000000005" y="19.7"><title>2025-06-09 684.0 金币</title></rect><rect fill="#61b865" height="4" rx="1" ry="1" width="4" x="134.20000000000005" y="25.1"><title>2025-06-10 560.0 金币</title></rect><rect fill="#63bb68" height="4" rx="1" ry="1" width="4" x="134.20000000000005" y="30.5"><title>2025-06-11 396.0 金币</title></rect><rect fill="#99de9b" height="4" rx="1" ry="1" width="4" x="134.20000000000005" y="35.9"><title>2025-06-12 330.0 金币</title></rect><rect fill="#62ba67" height="4" rx="1" ry="1" width="4" x="134.20000000000005" y="41.300000000000004"><title>2025-06-13 444.0 金币</title></rect><rect fill="#98dd9a" height="4" rx="1" ry="1" width="4" x="134.20000000000005" y="46.699999999999996"><title>2025-06-14 350.0 金币</title></rect><rect fill="#60b865" height="4" rx="1" ry="1" width="4" x="134.20000000000005" y="52.1"><title>2025-06-15 586.0 金币</title></rect><rect fill="#62ba67" height="4" rx="1" ry="1" width="4" x="139.60000000000005" y="19.7"><title>2025-06-16 448.0 金币</title></rect><rect fill="#62ba67" height="4" rx="1" ry="1" width="4" x="139.60000000000005" y="25.1"><title>2025-06-17 458.0 金币</title></rect><rect fill="#63bb68" height="4" rx="1" ry="1" width="4" x="139.60000000000005" y="30.5"><title>2025-06-18 384.0 金币</title></rect><rect fill="#61b966" height="4" rx="1" ry="1" width="4" x="139.60000000000005" y="35.9"><title>2025-06-19 540.0 金币</title></rect><rect fill="#97dd99" height="4" rx="1" ry="1" width="4" x="139.60000000000005" y="41.300000000000004"><title>2025-06-20 362.0 金币</title></rect><rect fill="#9ee0a0" height="4" rx="1" ry="1" width="4" x="139.60000000000005" y="46.699999999999996"><title>2025-06-21 238.0 金币</title></rect><rect fill="#62ba67" height="4" rx="1" ry="1" width="4" x="139.60000000000005" y="52.1"><title>2025-06-22 472.0 金币</title></rect><rect fill="#9ade9c" height="4" rx="1" ry="1" width="4" x="145.00000000000006" y="19.7"><title>2025-06-23 310.0 金币</title></rect><rect fill="#549F57" height="4" rx="1" ry="1" width="4" x="145.00000000000006" y="25.1"><title>2025-06-24 784.0 金币</title></rect><rect fill="#61b966" height="4" rx="1" ry="1" width="4" x="145.00000000000006" y="30.5"><title>2025-06-25 550.0 金币</title></rect><rect fill="#63bb67" height="4" rx="1" ry="1" width="4" x="145.00000000000006" y="35.9"><title>2025-06-26 422.0 金币</title></rect><rect fill="#60b764" height="4" rx="1" ry="1" width="4" x="145.00000000000006" y="41.300000000000004"><title>2025-06-27 634.0 金币</title></rect><rect fill="#a2e2a4" height="4" rx="1" ry="1" width="4" x="145.00000000000006" y="46.699999999999996"><title>2025-06-28 172.0 金币</title></rect><rect fill="#9ade9d" height="4" rx="1" ry="1" width="4" x="145.00000000000006" y="52.1"><title>2025-06-29 302.0 金币</title></rect><rect fill="#549F57" height="4" rx="1" ry="1" width="4" x="150.40000000000006" y="19.7"><title>2025-06-30 1176.0 金币</title></rect><rect fill="#549F57" height="4" rx="1" ry="1" width="4" x="150.40000000000006" y="25.1"><title>2025-07-01 774.0 金币</title></rect><rect fill="#a0e2a3" height="4" rx="1" ry="1" width="4" x="150.40000000000006" y="30.5"><title>2025-07-02 196.0 金币</title></rect><rect fill="#62ba67" height="4" rx="1" ry="1" width="4" x="150.40000000000006" y="35.9"><title>2025-07-03 470.0 金币</title></rect><rect fill="#98dd9a" height="4" rx="1" ry="1" width="4" x="150.40000000000006" y="41.300000000000004"><title>2025-07-04 348.0 金币</title></rect><rect fill="#62ba67" height="4" rx="1" ry="1" width="4" x="150.40000000000006" y="46.699999999999996"><title>2025-07-05 444.0 金币</title></rect><rect fill="#99de9b" height="4" rx="1" ry="1" width="4" x="150.40000000000006" y="52.1"><title>2025-07-06 330.0 金币</title></rect><text fill="#000000" style="font-size:2.5px; font-family:Arial" x="155.80000000000007" y="18.3">Jul</text><rect fill="#9ce09f" height="4" rx="1" ry="1" width="4" x="155.80000000000007" y="19.7"><title>2025-07-07 264.0 金币</title></rect><rect fill="#63bb68" height="4" rx="1" ry="1" width="4" x="155.80000000000007" y="25.1"><title>2025-07-08 384.0 金币</title></rect><rect fill="#98dd9a" height="4" rx="1" ry="1" width="4" x="155.80000000000007" y="30.5"><title>2025-07-09 348.0 金币</title></rect><rect fill="#62ba67" height="4" rx="1" ry="1" width="4" x="155.80000000000007" y="35.9"><title>2025-07-10 458.0 金币</title></rect><rect fill="#9bdf9d" height="4" rx="1" ry="1" width="4" x="155.80000000000007" y="41.300000000000004"><title>2025-07-11 294.0 金币</title></rect><rect fill="#61b966" height="4" rx="1" ry="1" width="4" x="155.80000000000007" y="46.699999999999996"><title>2025-07-12 522.0 金币</title></rect><rect fill="#62ba67" height="4" rx="1" ry="1" width="4" x="155.80000000000007" y="52.1"><title>2025-07-13 464.0 金币</title></rect><rect fill="#62b966" height="4" rx="1" ry="1" width="4" x="161.20000000000007" y="19.7"><title>2025-07-14 496.0 金币</title></rect><rect fill="#61b865" height="4" rx="1" ry="1" width="4" x="161.20000000000007" y="25.1"><title>2025-07-15 582.0 金币</title></rect><rect fill="#98dd9b" height="4" rx="1" ry="1" width="4" x="161.20000000000007" y="30.5"><title>2025-07-16 338.0 金币</title></rect><rect fill="#61b966" height="4" rx="1" ry="1" width="4" x="161.20000000000007" y="35.9"><title>2025-07-17 524.0 金币</title></rect><rect fill="#62b966" height="4" rx="1" ry="1" width="4" x="161.20000000000007" y="41.300000000000004"><title>2025-07-18 500.0 金币</title></rect><rect fill="#60b865" height="4" rx="1" ry="1" width="4" x="161.20000000000007" y="46.699999999999996"><title>2025-07-19 606.0 金币</title></rect><rect fill="#549F57" height="4" rx="1" ry="1" width="4" x="161.20000000000007" y="52.1"><title>2025-07-20 886.0 金币</title></rect><rect fill="#549F57" height="4" rx="1" ry="1" width="4" x="166.60000000000008" y="19.7"><title>2025-07-21 854.0 金币</title></rect><rect fill="#549F57" height="4" rx="1" ry="1" width="4" x="166.60000000000008" y="25.1"><title>2025-07-22 1022.0 金币</title></rect><rect fill="#62b966" height="4" rx="1" ry="1" width="4" x="166.60000000000008" y="30.5"><title>2025-07-23 496.0 金币</title></rect><rect fill="#549F57" height="4" rx="1" ry="1" width="4" x="166.60000000000008" y="35.9"><title>2025-07-24 1052.0 金币</title></rect><rect fill="#60b865" height="4" rx="1" ry="1" width="4" x="166.60000000000008" y="41.300000000000004"><title>2025-07-25 588.0 金币</title></rect><rect fill="#549F57" height="4" rx="1" ry="1" width="4" x="166.60000000000008" y="46.699999999999996"><title>2025-07-26 1224.0 金币</title></rect><rect fill="#549F57" height="4" rx="1" ry="1" width="4" x="166.60000000000008" y="52.1"><title>2025-07-27 760.0 金币</title></rect><rect fill="#549F57" height="4" rx="1" ry="1" width="4" x="172.00000000000009" y="19.7"><title>2025-07-28 1240.0 金币</title></rect><rect fill="#549F57" height="4" rx="1" ry="1" width="4" x="172.00000000000009" y="25.1"><title>2025-07-29 1164.0 金币</title></rect><rect fill="#549F57" height="4" rx="1" ry="1" width="4" x="172.00000000000009" y="30.5"><title>2025-07-30 892.0 金币</title></rect><rect fill="#549F57" height="4" rx="1" ry="1" width="4" x="172.00000000000009" y="35.9"><title>2025-07-31 802.0 金币</title></rect><rect fill="#96dc98" height="4" rx="1" ry="1" width="4" x="172.00000000000009" y="41.300000000000004"><title>2025-08-01 382.0 金币</title></rect><rect fill="#61b865" height="4" rx="1" ry="1" width="4" x="172.00000000000009" y="46.699999999999996"><title>2025-08-02 554.0 金币</title></rect><rect fill="#61b865" height="4" rx="1" ry="1" width="4" x="172.00000000000009" y="52.1"><title>2025-08-03 568.0 金币</title></rect><text fill="#000000" style="font-size:2.5px; font-family:Arial" x="177.4000000000001" y="18.3">Aug</text><rect fill="#61b966" height="4" rx="1" ry="1" width="4" x="177.4000000000001" y="19.7"><title>2025-08-04 542.0 金币</title></rect><rect fill="#549F57" height="4" rx="1" ry="1" width="4" x="177.4000000000001" y="25.1"><title>2025-08-05 1776.0 金币</title></rect><rect fill="#549F57" height="4" rx="1" ry="1" width="4" x="177.4000000000001" y="30.5"><title>2025-08-06 1028.0 金币</title></rect><rect fill="#549F57" height="4" rx="1" ry="1" width="4" x="177.4000000000001" y="35.9"><title>2025-08-07 1498.0 金币</title></rect><rect fill="#549F57" height="4" rx="1" ry="1" width="4" x="177.4000000000001" y="41.300000000000004"><title>2025-08-08 780.0 金币</title></rect><rect fill="#549F57" height="4" rx="1" ry="1" width="4" x="177.4000000000001" y="46.699999999999996"><title>2025-08-09 726.0 金币</title></rect><rect fill="#549F57" height="4" rx="1" ry="1" width="4" x="177.4000000000001" y="52.1"><title>2025-08-10 762.0 金币</title></rect><rect fill="#549F57" height="4" rx="1" ry="1" width="4" x="182.8000000000001" y="19.7"><title>2025-08-11 958.0 金币</title></rect><rect fill="#549F57" height="4" rx="1" ry="1" width="4" x="182.8000000000001" y="25.1"><title>2025-08-12 1000.0 金币</title></rect><rect fill="#549F57" height="4" rx="1" ry="1" width="4" x="182.8000000000001" y="30.5"><title>2025-08-13 696.0 金币</title></rect><rect fill="#549F57" height="4" rx="1" ry="1" width="4" x="182.8000000000001" y="35.9"><title>2025-08-14 914.0 金币</title></rect><rect fill="#549F57" height="4" rx="1" ry="1" width="4" x="182.8000000000001" y="41.300000000000004"><title>2025-08-15 958.0 金币</title></rect><rect fill="#549F57" height="4" rx="1" ry="1" width="4" x="182.8000000000001" y="46.699999999999996"><title>2025-08-16 1014.0 金币</title></rect><rect fill="#549F57" height="4" rx="1" ry="1" width="4" x="182.8000000000001" y="52.1"><title>2025-08-17 1104.0 金币</title></rect><rect fill="#549F57" height="4" rx="1" ry="1" width="4" x="188.2000000000001" y="19.7"><title>2025-08-18 824.0 金币</title></rect><rect fill="#62ba67" height="4" rx="1" ry="1" width="4" x="188.2000000000001" y="25.1"><title>2025-08-19 478.0 金币</title></rect><rect fill="#60b865" height="4" rx="1" ry="1" width="4" x="188.2000000000001" y="30.5"><title>2025-08-20 604.0 金币</title></rect><rect fill="#9ade9d" height="4" rx="1" ry="1" width="4" x="188.2000000000001" y="35.9"><title>2025-08-21 300.0 金币</title></rect><rect fill="#a2e2a4" height="4" rx="1" ry="1" width="4" x="188.2000000000001" y="41.300000000000004"><title>2025-08-22 174.0 金币</title></rect><rect fill="#60b865" height="4" rx="1" ry="1" width="4" x="188.2000000000001" y="46.699999999999996"><title>2025-08-23 604.0 金币</title></rect><rect fill="#549F57" height="4" rx="1" ry="1" width="4" x="188.2000000000001" y="52.1"><title>2025-08-24 894.0 金币</title></rect><rect fill="#549F57" height="4" rx="1" ry="1" width="4" x="193.6000000000001" y="19.7"><title>2025-08-25 1062.0 金币</title></rect><rect fill="#549F57" height="4" rx="1" ry="1" width="4" x="193.6000000000001" y="25.1"><title>2025-08-26 738.0 金币</title></rect><rect fill="#60b764" height="4" rx="1" ry="1" width="4" x="193.6000000000001" y="30.5"><title>2025-08-27 630.0 金币</title></rect><rect fill="#5fb764" height="4" rx="1" ry="1" width="4" x="193.6000000000001" y="35.9"><title>2025-08-28 658.0 金币</title></rect><rect fill="#63bb68" height="4" rx="1" ry="1" width="4" x="193.6000000000001" y="41.300000000000004"><title>2025-08-29 418.0 金币</title></rect><rect fill="#549F57" height="4" rx="1" ry="1" width="4" x="193.6000000000001" y="46.699999999999996"><title>2025-08-30 768.0 金币</title></rect><rect fill="#62ba67" height="4" rx="1" ry="1" width="4" x="193.6000000000001" y="52.1"><title>2025-08-31 470.0 金币</title></rect><text fill="#000000" style="font-size:2.5px; font-family:Arial" x="199.0000000000001" y="18.3">Sep</text><rect fill="#62ba67" height="4" rx="1" ry="1" width="4" x="199.0000000000001" y="19.7"><title>2025-09-01 448.0 金币</title></rect><rect fill="#60b865" height="4" rx="1" ry="1" width="4" x="199.0000000000001" y="25.1"><title>2025-09-02 608.0 金币</title></rect><rect fill="#549F57" height="4" rx="1" ry="1" width="4" x="199.0000000000001" y="30.5"><title>2025-09-03 672.0 金币</title></rect><rect fill="#a2e2a4" height="4" rx="1" ry="1" width="4" x="199.0000000000001" y="35.9"><title>2025-09-04 170.0 金币</title></rect><rect fill="#9bdf9d" height="4" rx="1" ry="1" width="4" x="199.0000000000001" y="41.300000000000004"><title>2025-09-05 296.0 金币</title></rect><rect fill="#62ba67" height="4" rx="1" ry="1" width="4" x="199.0000000000001" y="46.699999999999996"><title>2025-09-06 476.0 金币</title></rect><rect fill="#60b764" height="4" rx="1" ry="1" width="4" x="199.0000000000001" y="52.1"><title>2025-09-07 652.0 金币</title></rect><rect fill="#9cdf9f" height="4" rx="1" ry="1" width="4" x="204.40000000000012" y="19.7"><title>2025-09-08 268.0 金币</title></rect><rect fill="#62ba67" height="4" rx="1" ry="1" width="4" x="204.40000000000012" y="25.1"><title>2025-09-09 448.0 金币</title></rect><rect fill="#9de09f" height="4" rx="1" ry="1" width="4" x="204.40000000000012" y="30.5"><title>2025-09-10 260.0 金币</title></rect><rect fill="#63bb68" height="4" rx="1" ry="1" width="4" x="204.40000000000012" y="35.9"><title>2025-09-11 408.0 金币</title></rect><rect fill="#549F57" height="4" rx="1" ry="1" width="4" x="204.40000000000012" y="41.300000000000004"><title>2025-09-12 732.0 金币</title></rect><rect fill="#63bb68" height="4" rx="1" ry="1" width="4" x="204.40000000000012" y="46.699999999999996"><title>2025-09-13 392.0 金币</title></rect><rect fill="#98dd9a" height="4" rx="1" ry="1" width="4" x="204.40000000000012" y="52.1"><title>2025-09-14 344.0 金币</title></rect><rect fill="#9ade9c" height="4" rx="1" ry="1" width="4" x="209.80000000000013" y="19.7"><title>2025-09-15 310.0 金币</title></rect><rect fill="#a7e5a9" height="4" rx="1" ry="1" width="4" x="209.80000000000013" y="25.1"><title>2025-09-16 82.0 金币</title></rect><rect fill="#549F57" height="4" rx="1" ry="1" width="4" x="209.80000000000013" y="30.5"><title>2025-09-17 888.0 金币</title></rect><rect fill="#62ba67" height="4" rx="1" ry="1" width="4" x="209.80000000000013" y="35.9"><title>2025-09-18 452.0 金币</title></rect><rect fill="#9bdf9d" height="4" rx="1" ry="1" width="4" x="209.80000000000013" y="41.300000000000004"><title>2025-09-19 292.0 金币</title></rect><rect fill="#62ba67" height="4" rx="1" ry="1" width="4" x="209.80000000000013" y="46.699999999999996"><title>2025-09-20 482.0 金币</title></rect><rect fill="#a5e4a7" height="4" rx="1" ry="1" width="4" x="209.80000000000013" y="52.1"><title>2025-09-21 114.0 金币</title></rect><rect fill="#9ee1a1" height="4" rx="1" ry="1" width="4" x="215.20000000000013" y="19.7"><title>2025-09-22 230.0 金币</title></rect><rect fill="#9de09f" height="4" rx="1" ry="1" width="4" x="215.20000000000013" y="25.1"><title>2025-09-23 256.0 金币</title></rect><rect fill="#96dc99" height="4" rx="1" ry="1" width="4" x="215.20000000000013" y="30.5"><title>2025-09-24 374.0 金币</title></rect><rect fill="#96dc99" height="4" rx="1" ry="1" width="4" x="215.20000000000013" y="35.9"><title>2025-09-25 370.0 金币</title></rect><rect fill="#9ee0a0" height="4" rx="1" ry="1" width="4" x="215.20000000000013" y="41.300000000000004"><title>2025-09-26 242.0 金币</title></rect><rect fill="#a0e1a2" height="4" rx="1" ry="1" width="4" x="215.20000000000013" y="46.699999999999996"><title>2025-09-27 200.0 金币</title></rect><rect fill="#a3e3a5" height="4" rx="1" ry="1" width="4" x="215.20000000000013" y="52.1"><title>2025-09-28 154.0 金币</title></rect><rect fill="#63bb68" height="4" rx="1" ry="1" width="4" x="220.60000000000014" y="19.7"><title>2025-09-29 406.0 金币</title></rect><rect fill="#aae6ac" height="4" rx="1" ry="1" width="4" x="220.60000000000014" y="25.1"><title>2025-09-30 32.0 金币</title></rect><rect fill="#EBEDF0" height="4" rx="1" ry="1" width="4" x="220.60000000000014" y="30.5"><title>2025-10-01</title></rect><rect fill="#EBEDF0" height="4" rx="1" ry="1" width="4" x="220.60000000000014" y="35.9"><title>2025-10-02</title></rect><rect fill="#EBEDF0" height="4" rx="1" ry="1" width="4" x="220.60000000000014" y="41.300000000000004"><title>2025-10-03</title></rect><rect fill="#EBEDF0" height="4" rx="1" ry="1" width="4" x="220.60000000000014" y="46.699999999999996"><title>2025-10-04</title></rect><rect fill="#EBEDF0" height="4" rx="1" ry="1" width="4" x="220.60000000000014" y="52.1"><title>2025-10-05</title></rect><text fill="#000000" style="font-size:2.5px; font-family:Arial" x="226.00000000000014" y="18.3">Oct</text><rect fill="#EBEDF0" height="4" rx="1" ry="1" width="4" x="226.00000000000014" y="19.7"><title>2025-10-06</title></rect><rect fill="#EBEDF0" height="4" rx="1" ry="1" width="4" x="226.00000000000014" y="25.1"><title>2025-10-07</title></rect><rect fill="#EBEDF0" height="4" rx="1" ry="1" width="4" x="226.00000000000014" y="30.5"><title>2025-10-08</title></rect><rect fill="#EBEDF0" height="4" rx="1" ry="1" width="4" x="226.00000000000014" y="35.9"><title>2025-10-09</title></rect><rect fill="#EBEDF0" height="4" rx="1" ry="1" width="4" x="226.00000000000014" y="41.300000000000004"><title>2025-10-10</title></rect><rect fill="#EBEDF0" height="4" rx="1" ry="1" width="4" x="226.00000000000014" y="46.699999999999996"><title>2025-10-11</title></rect><rect fill="#EBEDF0" height="4" rx="1" ry="1" width="4" x="226.00000000000014" y="52.1"><title>2025-10-12</title></rect><rect fill="#EBEDF0" height="4" rx="1" ry="1" width="4" x="231.40000000000015" y="19.7"><title>2025-10-13</title></rect><rect fill="#EBEDF0" height="4" rx="1" ry="1" width="4" x="231.40000000000015" y="25.1"><title>2025-10-14</title></rect><rect fill="#EBEDF0" height="4" rx="1" ry="1" width="4" x="231.40000000000015" y="30.5"><title>2025-10-15</title></rect><rect fill="#EBEDF0" height="4" rx="1" ry="1" width="4" x="231.40000000000015" y="35.9"><title>2025-10-16</title></rect><rect fill="#EBEDF0" height="4" rx="1" ry="1" width="4" x="231.40000000000015" y="41.300000000000004"><title>2025-10-17</title></rect><rect fill="#EBEDF0" height="4" rx="1" ry="1" width="4" x="231.40000000000015" y="46.699999999999996"><title>2025-10-18</title></rect><rect fill="#EBEDF0" height="4" rx="1" ry="1" width="4" x="231.40000000000015" y="52.1"><title>2025-10-19</title></rect><rect fill="#EBEDF0" height="4" rx="1" ry="1" width="4" x="236.80000000000015" y="19.7"><title>2025-10-20</title></rect><rect fill="#EBEDF0" height="4" rx="1" ry="1" width="4" x="236.80000000000015" y="25.1"><title>2025-10-21</title></rect><rect fill="#EBEDF0" height="4" rx="1" ry="1" width="4" x="236.80000000000015" y="30.5"><title>2025-10-22</title></rect><rect fill="#EBEDF0" height="4" rx="1" ry="1" width="4" x="236.80000000000015" y="35.9"><title>2025-10-23</title></rect><rect fill="#EBEDF0" height="4" rx="1" ry="1" width="4" x="236.80000000000015" y="41.300000000000004"><title>2025-10-24</title></rect><rect fill="#EBEDF0" height="4" rx="1" ry="1" width="4" x="236.80000000000015" y="46.699999999999996"><title>2025-10-25</title></rect><rect fill="#EBEDF0" height="4" rx="1" ry="1" width="4" x="236.80000000000015" y="52.1"><title>2025-10-26</title></rect><rect fill="#EBEDF0" height="4" rx="1" ry="1" width="4" x="242.20000000000016" y="19.7"><title>2025-10-27</title></rect><rect fill="#EBEDF0" height="4" rx="1" ry="1" width="4" x="242.20000000000016" y="25.1"><title>2025-10-28</title></rect><rect fill="#EBEDF0" height="4" rx="1" ry="1" width="4" x="242.20000000000016" y="30.5"><title>2025-10-29</title></rect><rect fill="#EBEDF0" height="4" rx="1" ry="1" width="4" x="242.20000000000016" y="35.9"><title>2025-10-30</title></rect><rect fill="#EBEDF0" height="4" rx="1" ry="1" width="4" x="242.20000000000016" y="41.300000000000004"><title>2025-10-31</title></rect><rect fill="#EBEDF0" height="4" rx="1" ry="1" width="4" x="242.20000000000016" y="46.699999999999996"><title>2025-11-01</title></rect><rect fill="#EBEDF0" height="4" rx="1" ry="1" width="4" x="242.20000000000016" y="52.1"><title>2025-11-02</title></rect><text fill="#000000" style="font-size:2.5px; font-family:Arial" x="247.60000000000016" y="18.3">Nov</text><rect fill="#EBEDF0" height="4" rx="1" ry="1" width="4" x="247.60000000000016" y="19.7"><title>2025-11-03</title></rect><rect fill="#EBEDF0" height="4" rx="1" ry="1" width="4" x="247.60000000000016" y="25.1"><title>2025-11-04</title></rect><rect fill="#EBEDF0" height="4" rx="1" ry="1" width="4" x="247.60000000000016" y="30.5"><title>2025-11-05</title></rect><rect fill="#EBEDF0" height="4" rx="1" ry="1" width="4" x="247.60000000000016" y="35.9"><title>2025-11-06</title></rect><rect fill="#EBEDF0" height="4" rx="1" ry="1" width="4" x="247.60000000000016" y="41.300000000000004"><title>2025-11-07</title></rect><rect fill="#EBEDF0" height="4" rx="1" ry="1" width="4" x="247.60000000000016" y="46.699999999999996"><title>2025-11-08</title></rect><rect fill="#EBEDF0" height="4" rx="1" ry="1" width="4" x="247.60000000000016" y="52.1"><title>2025-11-09</title></rect><rect fill="#EBEDF0" height="4" rx="1" ry="1" width="4" x="253.00000000000017" y="19.7"><title>2025-11-10</title></rect><rect fill="#EBEDF0" height="4" rx="1" ry="1" width="4" x="253.00000000000017" y="25.1"><title>2025-11-11</title></rect><rect fill="#EBEDF0" height="4" rx="1" ry="1" width="4" x="253.00000000000017" y="30.5"><title>2025-11-12</title></rect><rect fill="#EBEDF0" height="4" rx="1" ry="1" width="4" x="253.00000000000017" y="35.9"><title>2025-11-13</title></rect><rect fill="#EBEDF0" height="4" rx="1" ry="1" width="4" x="253.00000000000017" y="41.300000000000004"><title>2025-11-14</title></rect><rect fill="#EBEDF0" height="4" rx="1" ry="1" width="4" x="253.00000000000017" y="46.699999999999996"><title>2025-11-15</title></rect><rect fill="#EBEDF0" height="4" rx="1" ry="1" width="4" x="253.00000000000017" y="52.1"><title>2025-11-16</title></rect><rect fill="#EBEDF0" height="4" rx="1" ry="1" width="4" x="258.40000000000015" y="19.7"><title>2025-11-17</title></rect><rect fill="#EBEDF0" height="4" rx="1" ry="1" width="4" x="258.40000000000015" y="25.1"><title>2025-11-18</title></rect><rect fill="#EBEDF0" height="4" rx="1" ry="1" width="4" x="258.40000000000015" y="30.5"><title>2025-11-19</title></rect><rect fill="#EBEDF0" height="4" rx="1" ry="1" width="4" x="258.40000000000015" y="35.9"><title>2025-11-20</title></rect><rect fill="#EBEDF0" height="4" rx="1" ry="1" width="4" x="258.40000000000015" y="41.300000000000004"><title>2025-11-21</title></rect><rect fill="#EBEDF0" height="4" rx="1" ry="1" width="4" x="258.40000000000015" y="46.699999999999996"><title>2025-11-22</title></rect><rect fill="#EBEDF0" height="4" rx="1" ry="1" width="4" x="258.40000000000015" y="52.1"><title>2025-11-23</title></rect><rect fill="#EBEDF0" height="4" rx="1" ry="1" width="4" x="263.8000000000001" y="19.7"><title>2025-11-24</title></rect><rect fill="#EBEDF0" height="4" rx="1" ry="1" width="4" x="263.8000000000001" y="25.1"><title>2025-11-25</title></rect><rect fill="#EBEDF0" height="4" rx="1" ry="1" width="4" x="263.8000000000001" y="30.5"><title>2025-11-26</title></rect><rect fill="#EBEDF0" height="4" rx="1" ry="1" width="4" x="263.8000000000001" y="35.9"><title>2025-11-27</title></rect><rect fill="#EBEDF0" height="4" rx="1" ry="1" width="4" x="263.8000000000001" y="41.300000000000004"><title>2025-11-28</title></rect><rect fill="#EBEDF0" height="4" rx="1" ry="1" width="4" x="263.8000000000001" y="46.699999999999996"><title>2025-11-29</title></rect><rect fill="#EBEDF0" height="4" rx="1" ry="1" width="4" x="263.8000000000001" y="52.1"><title>2025-11-30</title></rect><text fill="#000000" style="font-size:2.5px; font-family:Arial" x="269.2000000000001" y="18.3">Dec</text><rect fill="#EBEDF0" height="4" rx="1" ry="1" width="4" x="269.2000000000001" y="19.7"><title>2025-12-01</title></rect><rect fill="#EBEDF0" height="4" rx="1" ry="1" width="4" x="269.2000000000001" y="25.1"><title>2025-12-02</title></rect><rect fill="#EBEDF0" height="4" rx="1" ry="1" width="4" x="269.2000000000001" y="30.5"><title>2025-12-03</title></rect><rect fill="#EBEDF0" height="4" rx="1" ry="1" width="4" x="269.2000000000001" y="35.9"><title>2025-12-04</title></rect><rect fill="#EBEDF0" height="4" rx="1" ry="1" width="4" x="269.2000000000001" y="41.300000000000004"><title>2025-12-05</title></rect><rect fill="#EBEDF0" height="4" rx="1" ry="1" width="4" x="269.2000000000001" y="46.699999999999996"><title>2025-12-06</title></rect><rect fill="#EBEDF0" height="4" rx="1" ry="1" width="4" x="269.2000000000001" y="52.1"><title>2025-12-07</title></rect><rect fill="#EBEDF0" height="4" rx="1" ry="1" width="4" x="274.6000000000001" y="19.7"><title>2025-12-08</title></rect><rect fill="#EBEDF0" height="4" rx="1" ry="1" width="4" x="274.6000000000001" y="25.1"><title>2025-12-09</title></rect><rect fill="#EBEDF0" height="4" rx="1" ry="1" width="4" x="274.6000000000001" y="30.5"><title>2025-12-10</title></rect><rect fill="#EBEDF0" height="4" rx="1" ry="1" width="4" x="274.6000000000001" y="35.9"><title>2025-12-11</title></rect><rect fill="#EBEDF0" height="4" rx="1" ry="1" width="4" x="274.6000000000001" y="41.300000000000004"><title>2025-12-12</title></rect><rect fill="#EBEDF0" height="4" rx="1" ry="1" width="4" x="274.6000000000001" y="46.699999999999996"><title>2025-12-13</title></rect><rect fill="#EBEDF0" height="4" rx="1" ry="1" width="4" x="274.6000000000001" y="52.1"><title>2025-12-14</title></rect><rect fill="#EBEDF0" height="4" rx="1" ry="1" width="4" x="280.00000000000006" y="19.7"><title>2025-12-15</title></rect><rect fill="#EBEDF0" height="4" rx="1" ry="1" width="4" x="280.00000000000006" y="25.1"><title>2025-12-16</title></rect><rect fill="#EBEDF0" height="4" rx="1" ry="1" width="4" x="280.00000000000006" y="30.5"><title>2025-12-17</title></rect><rect fill="#EBEDF0" height="4" rx="1" ry="1" width="4" x="280.00000000000006" y="35.9"><title>2025-12-18</title></rect><rect fill="#EBEDF0" height="4" rx="1" ry="1" width="4" x="280.00000000000006" y="41.300000000000004"><title>2025-12-19</title></rect><rect fill="#EBEDF0" height="4" rx="1" ry="1" width="4" x="280.00000000000006" y="46.699999999999996"><title>2025-12-20</title></rect><rect fill="#EBEDF0" height="4" rx="1" ry="1" width="4" x="280.00000000000006" y="52.1"><title>2025-12-21</title></rect><rect fill="#EBEDF0" height="4" rx="1" ry="1" width="4" x="285.40000000000003" y="19.7"><title>2025-12-22</title></rect><rect fill="#EBEDF0" height="4" rx="1" ry="1" width="4" x="285.40000000000003" y="25.1"><title>2025-12-23</title></rect><rect fill="#EBEDF0" height="4" rx="1" ry="1" width="4" x="285.40000000000003" y="30.5"><title>2025-12-24</title></rect><rect fill="#EBEDF0" height="4" rx="1" ry="1" width="4" x="285.40000000000003" y="35.9"><title>2025-12-25</title></rect><rect fill="#EBEDF0" height="4" rx="1" ry="1" width="4" x="285.40000000000003" y="41.300000000000004"><title>2025-12-26</title></rect><rect fill="#EBEDF0" height="4" rx="1" ry="1" width="4" x="285.40000000000003" y="46.699999999999996"><title>2025-12-27</title></rect><rect fill="#EBEDF0" height="4" rx="1" ry="1" width="4" x="285.40000000000003" y="52.1"><title>2025-12-28</title></rect><rect fill="#EBEDF0" height="4" rx="1" ry="1" width="4" x="290.8" y="19.7"><title>2025-12-29</title></rect><rect fill="#EBEDF0" height="4" rx="1" ry="1" width="4" x="290.8" y="25.1"><title>2025-12-30</title></rect><rect fill="#EBEDF0" height="4" rx="1" ry="1" width="4" x="290.8" y="30.5"><title>2025-12-31</title></rect></svg>